<svg xmlns="http://www.w3.org/2000/svg" viewBox="0 0 1012.24 628.87">
  <defs>
    <style>
      .cls-1,
      .cls-21 {
        fill: #c70000;
      }
      .cls-1,
      .cls-2,
      .cls-3 {
        stroke: #fff;
      }
      .cls-1,
      .cls-2,
      .cls-21,
      .cls-3 {
        stroke-width: 0.75px;
      }
      .cls-2 {
        fill: #d3d3d3;
      }
      .cls-3 {
        fill: #9b131a;
      }
      .cls-4 {
        fill: none;
        stroke: #717171;
        stroke-width: 1.5px;
      }
      .cls-10,
      .cls-11,
      .cls-12,
      .cls-13,
      .cls-15,
      .cls-17,
      .cls-18,
      .cls-19,
      .cls-5,
      .cls-6,
      .cls-7,
      .cls-8 {
        isolation: isolate;
      }

      .cls-10,
      .cls-11,
      .cls-12,
      .cls-13,
      .cls-15,
      .cls-17,
      .cls-18,
      .cls-19,
      .cls-6,
      .cls-7,
      .cls-8 {
        font-size: 21.21px;
        font-family: DS4DisplaySansMedium, DS4 Display Sans Medium;
      }

      .cls-16,
      .cls-6 {
        letter-spacing: -0.01em;
      }

      .cls-8 {
        letter-spacing: -0.06em;
      }

      .cls-9 {
        letter-spacing: 0em;
      }

      .cls-10 {
        letter-spacing: -0.08em;
      }

      .cls-11,
      .cls-14 {
        letter-spacing: -0.01em;
      }

      .cls-12 {
        letter-spacing: -0.03em;
      }

      .cls-13 {
        letter-spacing: -0.03em;
      }

      .cls-15 {
        letter-spacing: -0.04em;
      }

      .cls-17 {
        letter-spacing: -0.02em;
      }

      .cls-18 {
        letter-spacing: 0.02em;
      }

      .cls-19 {
        letter-spacing: -0.07em;
      }

      .cls-20 {
        letter-spacing: 0.02em;
      }

      .cls-21 {
        stroke: #f4f4f4;
        stroke-linejoin: round;
      }
    </style>
  </defs>
  <title>state_map</title>
  <g id="Layer_2" data-name="Layer 2">
    <g id="Layer_2-2" data-name="Layer 2">
      <g id="svg2">
        <path id="MI" class="bigger" d="M638.91,71.23l-2.43.64L630.78,76l-2.32.85-1.9,2.23,1.69,1.17,2.22-1,3.48-2,5.49-5.51Zm11.72,15.06-5,.53-4.5,2.56-2.43,2.44-1.37,1.91-1.9.85-2,3.07L633.22,99l-4.64,2.23-2.53,2-6.33,1.06-.74.74v1.06l-3.69,2.33-3,.85-.74.64,4,5.44,8.34,1.27,8.66,2.33,3,1.06,12.77,2.86,2.22,2.44,3.69,1.48,2,10.92,1.48,1.06,1.27,1.06,3.38-7.42,1.06-4.35,2.11-4.56.84-.21,1.27,1.7h.63l4.75-2.54,1.58,1.7.53.21,1.37-1.17,1.16-3.29,2.53-.85,7.39-.74,2-2.76,5.49-.21,6.12,1.38h1.9l3.38-1.59,2.32.21,2.22-.64,3.91.53.84.32,1.37-.32-1.37-1.06-1.37-.64L711,110.27V103l-1.58-.53-1.16,1.27-6.62,1.69-2,.53-3.06-.85-.53-.32v-6l-1.58-.21-2.74,1.38-4.75,2-7.07.32-3.6,1.15L672,107.2l-1.69,1.06H669l-1.37.85-1.69-.53-1.69-1.38-1.58,1.06-4.12.21-3-3L654,102.18,652.51,101,649.13,100h-2.32l-1.37-1.38-3.8,3.07-1.06,1.17-.84-.53.32-2.76,2.53-3.39.53-2.54,2.43-.85L647,89.46,651,88.38l.32-1.06Zm70.2,24.6-2.32.21-1.69.21-.31,1.17,1.06.53.74,2.65,3.38.21,1.37-1.27s-.11-1.59-.42-1.7a16.27,16.27,0,0,1-1.82-2Zm-17.1,9.86-3.06,1.91L697.61,125l.32,3.82,1.06.32,2.22.53.53.85-2.74.85-2.74.32-1.58,1.91-.32,2.23.32,1.7.32,5.83-3.69,2.23-.8-.2v-4.45l1.37-2.54.74-2.54-.84-.85-2,.85-1.06,4.45-3,1.17-1.9,2-.21,1.06.74.85-.74,2.76-2.32.53v1.17l.84,2.54L681,158.85l-1.69,4.35.63,5,.53,1.17-.84,2.54-.32.85-.32,3,3.8,6.36,3.06,6.89,1.58,5.09-.84,5-1,6.28L683,210.89l-.32,3-3.38,3.29L684,217l22.59-2.33,7.71-1.06.11,1.8,7.18-1.27,10.87-1.59,4-.53.21-.64.21-1.48,2.22-3.92,2.11-1.91-.21-5.41,1.69-1.7,1.16-.32.21-3.71,1.58-3.18,1.16.64.21.74.84.21,2-1.06-.32-10.13-3.35-8.74-2.32-9.65-2.54-3.35-2.79-1.9-1.69,1.17-4.12,1.91-2,5.3-3,3.92-1.16.74-1.48-.74s-2.74-1.48-2.53-2.23.53-5.3.53-5.3l3.59-1.38.84-3.6.74-2.76,2.53-1.7-.32-10.6-1.69-2.33-1.37-.85-.84-2.23.84-.85,1.69.32.21-1.7-3.17-2.76-1.37-2.76H722l-4.75-1.48-5.81-3.6h-3l-.63.74-1.06-.53Z" data-name="Michigan" data-pos="2425946" data-deaths="36002" data-tested="null" data-cases-capita="24291" data-deaths-capita="360" data-cases-increase="0.6" style="transition-delay: 0.37s;"></path>
        <path id="ME" class="biggest" d="M986.72,75.47l2,2.23,2.43,3.92v2l-2.22,5-2,.64-3.59,3.29-5.06,5.83h-1.37c-.63,0-1.06-2.23-1.06-2.23l-1.9.21L972.89,98l-2.53,1.59-1.06,1.59,1.69,1.59-.48.66-.53,2.86-2-.21v-1.7l-.32-1.38-1.58.32-1.9-3.39L962,101.26l1.37,1.59.32,1.17-.84,1.38.32,3.29.21,1.7-1.69,2.76-3.06.53-.32,3.07L952.68,120l-1.37.53L949.62,119l-3.27,3.82,1.06,3.39-1.58,1.38-.21,4.67-1.16,6.68-2.64-1.27-.53-3.29-4.12-1.17-.32-2.86-7.71-24.81-5-15.48,1.48-.11,1.58.42v-3l1.37-4.77,2.74-5,1.58-4.23-2-2.54V64.45l.84-1.06.84-2.86-.21-1.59-.21-5.09,1.9-5.09,3.06-9.44,2.22-4.45h1.37l1.37.21v1.17l1.37,2.44,2.85.64.84-.85v-1.1l4.23-3,1.9-1.91,1.58.21,6.33,2.54,2,1.06L972.78,68h6.33l.84,2,.21,5.09,3.06,2.44h.84l.21-.53-.53-1.17Zm-22.06,32,1.58-1.59,1.48,1.17.63,2.54-1.79,1Zm7.07-6.26,1.9,2s1.37.11,1.37-.21.21-2.12.21-2.12l1-.85-.84-1.91-2.11.74Z" data-name="Maine" data-pos="243128" data-deaths="2282" data-tested="null" data-cases-capita="18087" data-deaths-capita="170" data-cases-increase="0.96" style="transition-delay: 0.56s;"></path>
        <path id="NY" class="bigger" d="M889.19,192,888,190.94l-2.74-.21-2.43-2-1.69-6.47-3.66.12L875,179.52l-20.47,4.63-45.44,9.23-7.92,1.27-.74-6.89,1.48-1.17,1.37-1.17,1.06-1.7,1.9-1.17,2-1.91.53-1.7,2.22-2.86,1.16-1.06-.21-1.06-1.41-3.27-1.9-.21-2-6.47,3.06-1.91,4.64-1.59,4.22-1.38,3.38-.53,6.65-.21,2,1.38,1.69.21,2.22-1.38,2.74-1.17,5.49-.53,2.22-1.91,1.9-3.39,1.69-2h2.22l2-1.17.21-2.44-1.58-2.23-.32-1.59,1.16-2.23v-1.56h-1.9l-1.9-.85-.84-1.17-.21-2.76,6.12-5.83.63-.85,1.58-3.07,3.06-4.77,2.85-3.92,2.22-2.54,2.53-1.91,3.27-1.27,5.81-1.38,3.38.21,4.75-1.59,8-2.23.53,5.3,2.53,6.89.84,5.51-.94,4.11,2.74,4.77.84,2.23-.88,3.12,3.06,1.38.63.32,3.27,11.66-.53,5.41-.53,11.45.84,5.83.84,3.82,1.58,7.74v8.59L905.21,195l1.9,2.12.84,1.8-2,1.91.32,1.38,1.37-.32,1.58-1.38,2.43-2.76,1.16-.64,1.69.64,2.43.21,8.34-4.14,3.06-2.86,1.37-1.59,4.43,1.7-3.59,3.82-3.8,2.76-7.49,5.62-2.74,1-6.12,2-4.22,1.17-1.27-.53-.21-3.92.53-2.86-.21-2.23-3-1.8-4.75-1.06-4.12-1.17Z" data-name="New York" data-pos="5143038" data-deaths="68284" data-tested="null" data-cases-capita="26438" data-deaths-capita="351" data-cases-increase="0.88" style="transition-delay: 0.485s;"></path>
        <path id="MD" class="bigger" d="M899.11,259.54l-6.33,1.27-5.38.11-1.9-7.32-2-9.75-2.74-6.57-1.37-4.67-7.92,1.7-15.73,3-39.58,8.06,1.16,5.3,1.06,6,.32-.32,2.22-2.54,2.43-2.76,2.53-.64,1.58-1.59,1.9-2.76,1.37.64,3.06-.32,2.74-2.23,2.11-1.59,1.9-.53,1.69,1.17,3.06,1.59,2,1.91,1.27,1.59,4.33,1.8v3.07l5.81,1.38,1.16.53,1.48-2.12,3.06,2.12L863,257.72l-.84,4.24-1.9,2.76V267l.63,1.91,5.38,1.48,4.54-.11,3.27,1.06,2.22.32,1.06-2.23-1.58-2.23v-1.91L873.28,263l-2.22-5.83,1.37-5.62-.21-2.23L870.85,248s1.58-1.7,1.58-2.44a17,17,0,0,1,.53-2.23l2-1.38,2-1.7.53,1.06-1.58,1.7-1.4,4,.32,1.17,1.9.32.53,5.83L875,255.3l.32,3.82.53-.21,1.16-2,1.69,1.91-1.69,1.38-.32,3.6,2.78,3.58,4.12.53,1.69-.85,3.38,4.45,1.48.53,7.07-3,2.11-4.24Zm-16.89,9.54,1.16,2.65.21,1.91,1.16,2s1-1,1-1.27-.74-3.29-.74-3.29l-.74-2.44Z" data-name="Maryland" data-pos="1028752" data-deaths="14441" data-tested="null" data-cases-capita="17016" data-deaths-capita="239" data-cases-increase="0.58" style="transition-delay: 0.495s;"></path>
        <path id="WV" class="smaller" d="M816.14,245.33l1.16,5.2,1.16,6.36,2.22-2.76,2.43-3.29,2.64-.64,1.58-1.59,1.9-2.76,1.48.64,3.06-.32,2.74-2.23,2.11-1.59,1.9-.53,1.37,1.06,3.8,1.91,2,1.91,1.48,1.38-.84,5.94-6.11-2.64-4.43-1.7-.11,5.51L834.83,261l-2.64,2.54-1.27,2.82-2.74.53-1,3.82-1.06,4.14-4.22.32-2.39-2.51-1.16.64-.63,5.83-1.48,3.71L811,294.52l1,1.27-.21,2-3,4.14-1.9-.53-3.17,2.33-2.64-.64L798.93,308a32,32,0,0,1-4.12,1.48c-.21,0-2.64-1.27-2.64-1.27l-2.43,1.48-2.53,1.06-3.91-1-1.16-1.27-2.31-3.07-3.32-2.16-1.75-3.84-4.54-3.71-.63-2.44-2.74-1.59-.84-1.7-.21-5.62,2.32-.11,2-.85.21-2.86,1.69-1.59.21-5.3,1.06-4.14,1.37-.64L776,270l.53,1.91,1.9-1.06.53-1.7-1.16-1.91V264.7l1.06-1.38,2.43-3.6,1.37-1.59,2.22.53,2.43-1.7,3.27-3.6,2.43-4.14.32-6,.53-5.3v-5l-1.16-3.29,1.06-1.59,1.37-1.38,3.69,21,4.86-.85Z" data-name="West Virginia" data-pos="500697" data-deaths="6851" data-tested="null" data-cases-capita="27938" data-deaths-capita="382" data-cases-increase="0.25" style="transition-delay: 0.465s;"></path>
        <path id="IL" class="bigger" d="M666.57,310.32v-3.39l.63-4.88,2.43-3.07,2-4.35,2.32-4.24-.42-5.62-2.11-3.71-.11-3.5.74-5.62-.84-7.63-1.16-16.75-1.37-15.9-1-12.3-.32-1-.84-2.76-1.37-3.92-1.64-1.87-1.58-2.76-.21-5.83L613.37,204l.21,2.54,2.43.74,1,1.17.5,2,4.12,3.6.74,2.44-.74,3.6-1.9,3.92-.74,2.65-2.48,1.88-1.9.74L609,230.69l-.74,1.91-.74,2.23.74,1.48,1.9,1.7-.21,4.35-1.9,1.7-.74,1.7v2.86l-1.9.53-1.69,1.17-.21,1.48.21,2.23L602,255.38l-1.06,3,.53,3.92,2.43,7.74,7.71,8,5.81,3.92-.21,4.56,1,1.48,6.76.53,2.85,1.48-.74,3.92-2.54,6.22-.74,3.39,2.43,4.14L633,313.3l4.86.74,2.22,5.3,2.22,3.39-1,3.18,1.69,4.35,1.9,2.23,1.48-1,1-2.23,2.32-1.8,2.22-.64,2.74,1.27,3.8,1.48,1.27-.32.21-2.44-1.38-2.49.32-2.54,1.9-1.38,3.17-.85,1.37-.53-.63-1.48L663.8,315l1.48-1.06Z" data-name="Illinois" data-pos="3128134" data-deaths="36025" data-tested="null" data-cases-capita="24686" data-deaths-capita="284" data-cases-increase="0.69" style="transition-delay: 0.365s;"></path>
        <path id="TN" class="smallest" d="M748.06,329.38l-54.78,5.3-16.68,1.8-4.86.53h-4.12l-.21,4.37-8.66.32-7.39.64-8.55-.11-1.48,7.53-1.69,5.83-3.48,3-1.37,4.67-.32,2.76-4.21,2.36,1.58,3.82-1.06,4.67-1.06.85,114.21-11,.42-4.24,1.9-1.59,3-.74.74-3.92,4.33-2.86,4.19-1.59,4.33-3.82,4.64-2.12.53-3.29,4.33-4.24.63-.11s0,1.17.84,1.17a6.79,6.79,0,0,1,2,.42l2.43-3.82,2.27-.59,2.43.32,1.69-3.71,3.17-2.76.42-2,.32-3.92-2.22-.21-2.81,2.07h-7.39l-19.42,2.54Z" data-name="Tennessee" data-pos="2027967" data-deaths="26151" data-tested="null" data-cases-capita="29696" data-deaths-capita="383" data-cases-increase="0.11" style="transition-delay: 0.38s;"></path>
        <path id="KY" class="smaller" d="M779,305l-2.48,2.55-3.8,4.24-5.17,5.83-1.27,1.8-.11,2.23L761.52,324l-6,3.6-7.6,1.91-54.78,5.2-16.57,1.8-4.86.53h-4.12l-.21,4.45-8.66.11-7.39.64-8.44-.11,1.27-1.38,2.64-1.59.21-3.39,1-1.91-1.69-2.65.84-2,2.43-1.91,2.22-.64,2.85,1.38,3.8,1.38,1.16-.32.21-2.44-1.37-2.54.32-2.44,2-1.59,2.74-.64,1.69-.64-.84-1.91-.63-2,1.58-1.06a24.3,24.3,0,0,0,1.27-3.92l3.27-1.59,5.59-1.06,4.75-.53,1.48,1.7,1.58,1,1.69-3.29,3.38-1.38,2.32,1.59.42,1.06,1.27-.32-.21-3.18,3.27-1.8,2.22-1.17,1.58,1.8h3.48l.63-1.7-.42-2.44,2.74-4.24,5.07-3.6.74-5.09,3.06-.53,4-1.7,2.53-1.8-.21-1.7-1.16-1.59.63-3.18,4.43-.11,2.43-.74,3.48,1.48,2.22,4.67h5.38l2.22,2.33,1.69-.11,2.74-1.38,5.49.64,2.74.21,1.79-2.23,2.74-1.48,2-.74.63,3,2.11,1.17,2.74,2.23.11,6,.84,1.7,2.74,1.7.84,2.44,4.43,3.6,1.9,3.82Z" data-name="Kentucky" data-pos="1326646" data-deaths="15447" data-tested="null" data-cases-capita="29694" data-deaths-capita="346" data-cases-increase="0.24" style="transition-delay: 0.39s;"></path>
        <path id="AL" class="smallest" d="M679,480.08l-1.58-15.16L674.59,445l.21-15,.84-32.87-.21-17.71.21-6.79,47-3.82-.11,2.33.21,2.23.63,3.6,3.59,8.38,2.53,10.5,1.58,6.47,1.69,5.09,1.58,7.42,2.22,6.68,2.74,3.6.53,3.6,2,.85.21,2.23-1.9,5.09-.53,3.39-.21,2,1.69,4.67.32,5.62-.84,2.54.63.85,1.58.85.32,3.07-5.91-.42-7.18.64-26.92,3.07-11,1.48-.21,3.07,1.9,1.91,2.74,2,.63,8.38-5.81,2.76h-3.13l2.85-2v-1.06l-3.28-6.36-2.43-.64-1.58,4.64-1.37,2.86-.63-.21Z" data-name="Alabama" data-pos="1300278" data-deaths="19559" data-tested="null" data-cases-capita="26519" data-deaths-capita="399" data-cases-increase="0.13" style="transition-delay: 0.41s;"></path>
        <path id="MS" class="smallest" d="M679.34,478.91l-.32,1.38h-5.51l-1.58-.85-2.22-.32-7.18,2-1.9-.85-2.74,4.45-1.16.85-1.16-2.65-1.16-4.14-3.57-3.4,1.16-5.83-.74-1-1.9.21-8.34,1-25.86.42-.84-2.33,1-8.91,3.27-6,5.49-9.65-.42-2.54,1.27-.74.42-2-2.43-2.23-.11-2.23-1.9-4.35-.11-6.36,1.37-2.65-.21-3.6-1.9-3.29,1.58-1.59L620,409.06l.53-1.8,1.69-6.89,2.64-2.12-.63-2.54,3.91-5.62,3-1.48-.21-1.8-.32-1.8,3.06-5.94,2.43-1.27.21-1,39.25-4.13.21,6.68.21,17.71-.84,32.87-.21,15,2.85,19.93Z" data-name="Mississippi" data-pos="797249" data-deaths="12439" data-tested="null" data-cases-capita="26788" data-deaths-capita="418" data-cases-increase="0.08" style="transition-delay: 0.37s;"></path>
        <path id="IA" class="smaller" d="M613.51,203.55l.32,3,2.32.64,1.06,1.27.53,2,4,3.6.74,2.54-.74,3.6-1.69,3.39-.84,2.86-2.32,1.7-1.79.64-5.91,2-1.48,4,.74,1.48,1.9,1.8-.32,4.24-1.9,1.59-.84,1.7.11,3-2,.53-1.69,1.17-.32,1.48.32,2.23L602,255.18l-2.64-3.29L598,249.38,528.61,252l-1,.21-2.22-4.77-.21-7-1.67-4.37-.74-5.62-2.43-3.92-1-5.09-2.85-8-1.16-5.73-1.48-2.33-1.69-2.86,2.11-5.09,1.48-6-2.85-2.23-.53-2.86,1-2.65h1.79l87.35-1.34.84,4.45,2.43,1.7.32,1.48-2.11,3.6.21,3.39,2.64,4,2.67,1.38,3.27.53Z" data-name="Iowa" data-pos="763072" data-deaths="9529" data-tested="null" data-cases-capita="24186" data-deaths-capita="302" data-cases-increase="0.23" style="transition-delay: 0.31s;"></path>
        <path id="WA" class="biggest" d="M120.41,0l4.64,1.59,10.24,2.86,9.08,2,21.11,6,24.28,6,16,3.39L191.45,89.38l-13.09-3.71L162,81.85H146l-.53-1.38-6,2.32-4.86-.74-2.2-1.67-1.58.64-5-.11-1.79-1.38-5.57-2.26-.74.11-4.64-1.7-2,1.91-6.62-.32-6.23-4.35.84-1,.11-8.16-2.43-4-4.33-.64-.74-2.65-2.43-.53-3.79,1.3-2.43-3.39.32-3.07,2.85-.32,1.69-4.24L85.41,45,85.62,41l4.6-.65-2.85-2.86L85.79,30l.63-3.07V18.53l-1.91-3.39,2.43-10,2.22.53,2.53,3.07,2.82,2.8,3.38,2,4.75,2.23,3.27.64L109,18l3.59,1.06,2.43-.21V16.31l1.37-1.17,2.22-1.38.32,1.17.32,1.91-2.43.53-.28,2.23,1.9,1.59,1.16,2.54.63,2,1.58-.21.21-1.38-1.06-1.38-.52-3.38.84-1.91-.63-1.59V13.45l1.9-3.82-1.16-2.76-2.53-5.09.32-.85Zm-10,6.4,2.13-.25L113,7.61l1.58-1.7h2.53L118,7.5l-1.58,1.8.63.85-.74,2.12-1.48.42s-1,.11-1-.21a14.33,14.33,0,0,1,1.58-2.76l-1.79-.64-.32,1.59-.74.64L111,8.87Z" data-name="Washington" data-pos="1493194" data-deaths="12686" data-tested="null" data-cases-capita="19609" data-deaths-capita="167" data-cases-increase="0.92" style="transition-delay: 0.05s;"></path>
      </g>
      <g id="Layer_2-2-2" data-name="Layer 2-2">
        <path id="DC" class="biggest" d="M863.22,257.84l-1.9-1.91-1.27-.74,1.48-2.12,3.06,2Z" data-name="District of Columbia" data-pos="141943" data-deaths="1340" data-tested="null" data-cases-capita="20112" data-deaths-capita="190" data-cases-increase="0.9" style="transition-delay: 0.52s;"></path>
        <path id="NM" class="smaller" d="M316.85,441.48l-.84-5,9.08.53L357,440.08l28.82,1.8,2.32-19.83,4.12-59.27L394,342.21l1.69.11.84-11.88L286.77,319.23,268.3,446.89,284.66,449l1.37-10.6Z" data-name="New Mexico" data-pos="521823" data-deaths="7465" data-tested="null" data-cases-capita="24886" data-deaths-capita="356" data-cases-increase="0.24" style="transition-delay: 0.16s;"></path>
      </g>
      <g id="Layer_3" data-name="Layer 3">
        <path id="NE" class="smallest" d="M525.75,247.13l3.38,7.42L529,257l3.69,5.83,2.85,3.39h-5.28l-45.92-1-43.07-1-23.54-.85,1.16-22.58-34.1-3.07,4.54-46.65,16.36,1.06L427,193.38l18.79,1.17,25.12,1.17,11.29-.53,2.22,2.44,5.07,3.18,1.16,1,4.54-1.48,4.12-.53,2.85-.21,1.9,1.48,4.33,1.7,3.17,1.61.53,1.7,1,2.23h2.74l1,5,3.06,9,.63,4,2.64,4,.63,5.41,1.69,4.45Z" data-name="Nebraska" data-pos="479685" data-deaths="4197" data-tested="null" data-cases-capita="24798" data-deaths-capita="217" data-cases-increase="0.18" style="transition-delay: 0.235s;"></path>
        <path id="CO" class="bigger" d="M413.76,332.27l5.17-91.5L299.23,227.3l-12.88,93.2Z" data-name="Colorado" data-pos="1380892" data-deaths="12142" data-tested="null" data-cases-capita="23979" data-deaths-capita="211" data-cases-increase="0.68" style="transition-delay: 0.175s;"></path>
        <path id="AZ" class="smallest" d="M165.59,397.59l-2.74,2.33-.32,1.59.53,1.06,20,11.35L195.83,422l15.52,9.12,17.73,10.6,13,2.54,26.39,2.86,18.26-126.28L198.31,308.2,195,325.59h-1.69l-1.84,2.79-2.64-.11-1.36-2.89-2.85-.32-1-1.17H182.5l-1,.64-2,1.06-.11,7.42-.21,1.8-.63,13.36L177,350.5l-.63,3.5,2.85,5.2,1.37,6.15,1,1,1.06.64-.11,2.44-1.69,1.48-3.59,1.8-2,2-1.58,3.92-.63,5.2-3.06,2.86-2.22.74.11.85-.53,1.8.53.85,3.91.64-.63,2.86-1.57,2.38Z" data-name="Arizona" data-pos="2021524" data-deaths="29951" data-tested="null" data-cases-capita="27773" data-deaths-capita="411" data-cases-increase="0.12" style="transition-delay: 0.1s;"></path>
        <path id="CA" class="smaller" d="M165.38,397.16l4.12-.53,1.58-2.12.53-3.07-3.8-.64-.53-.74.53-2.12-.21-.64,2-.64,3.17-3,.63-5.3,1.48-3.6,2-2.33,3.69-1.7,1.79-1.7.11-2.23-1.06-.64L180.35,365l-1.27-6.15-2.85-5.09.63-3.71L174.33,349,101.62,238.44l20-71.68L50.74,150.12l-1.58,5L49,163l-5.44,12.49-3.27,2.76-.37,1.16-1.9.85-1.58,4.45-.88,3.39,2.85,4.45L40.05,197l1.16,3.82-.32,6.89L39,211l-.63,6.15L37.3,221l1.9,4.14L42.05,230,44.51,235l1.37,4.24-.32,3.39-.32.53v2.23l6,6.68-.53,2.54-.63,2.44-.63,2,.21,8.69,2.22,3.92,2,2.76,2.85.53,1.06,2.86-1.16,3.82-2.19,1.71H53.28l-.84,4.14.53,3.07,3.38,4.67L58,300.88l1.58,5L61,309.17l3.59,6.15,1.58,2.76.53,3.07,1.69,1.06v2.54l-.84,2-1.9,7.53-.53,2,2.53,2.86,4.43.53,4.75,1.91,4.12,2.23H84l3.06,3.29,2.74,5.09L91,354.63l4.12,2.23,5.07.85,1.58,2.23.63,3.39-1.58.64.32,1.06,3.38.85,2.85.21,3.38-1.8,4.12,4.45.84,2.44,2.74,4.45.32,3.39v10l.53,1.91,10.56,1.59,20.78,2.86Zm-93-46.33,1.38,1.55-.25,1.42-3.38-.11-.62-1.31-.63-1.59Zm2,0,1.27-.64,3.8,2.23,3.27,1.27-1,.64L77,354.12l-1.63-1.74Zm21.85,21,1.9,2.44.84,1.06,1.58.64.63-1.59-1.06-1.91-2.83-2.09-1.16.21.11,1.27ZM94.65,381l1.86,3.43,1.27,2-1.58.21-1.37-1.27a11.34,11.34,0,0,1-.74-2V381Z" data-name="California" data-pos="9215397" data-deaths="90168" data-tested="null" data-cases-capita="23323" data-deaths-capita="228" data-cases-increase="0.45" style="transition-delay: 0.02s;"></path>
      </g>
      <g id="Layer_5" data-name="Layer 5">
        <path id="NH" class="bigger" d="M942.39,142.91l1-1.17,1.16-3.5-2.64-1-.53-3.29-4.12-1.17-.32-2.86-7.71-24.81-4.86-15.37h-1l-.63,1.7-.63-.53-1.06-1.06-1.58,2v5.3l.32,6,2,2.86v4.37l-3.91,5.41L915.14,117v1.17L916.3,120v9.12l-.79,9.72L915.3,144l1.06,1.38-.21,4.77-.53,1.91,1.06.74,17.73-4.67,2.32-.64,1.9-3Z" data-name="New Hampshire" data-pos="309193" data-deaths="2478" data-tested="null" data-cases-capita="22740" data-deaths-capita="182" data-cases-increase="0.8" style="transition-delay: 0.555s;"></path>
        <path id="VT" class="biggest" d="M904.07,155.31l.32-5.62-3.06-11.45-.63-.32-3.06-1.38.84-3.07-.84-2.23-2.86-4.86,1.06-4.14-.84-5.51-2.49-6.9-.84-5.2,27.84-7.1.32,5.83,2,2.86v4.24l-3.91,5.41L915.18,117v1.17l1.37,1.59-.34,8.58-.63,9.86-.21,5.94,1.06,1.38-.21,4.88-.53,1.8,1.06.74-7.81,1.59Z" data-name="Vermont" data-pos="123062" data-deaths="630" data-tested="null" data-cases-capita="19722" data-deaths-capita="101" data-cases-increase="1.83" style="transition-delay: 0.54s;"></path>
        <path id="PA" class="smaller" d="M883.59,230.17l1.37-.32,2.43-1.38,1.27-2.65,1.69-2.44,3.38-3.29v-.85l-2.53-1.7L887.4,215l-1.06-2.76-2.85-.32-.21-1.17-.84-2.86,2.43-1.17.21-2.54-1.37-1.38.21-1.7,2-3.29v-3.29l2.85-2.76-1-.74-2.64-.21-2.43-2-1.53-6.43-3.69.11-2.64-2.86-19.11,4.45-45.39,9.22L801,194.89l-.63-6.89-5.71,5.38-1.37.53-4.43,3.18,3,20.29,2.65,10.24,3.8,20.46,3.48-.64,12.56-1.59,40-8.16,15.73-3,8.76-1.7.32-.21,2.22-1.7Z" data-name="Pennsylvania" data-pos="2812954" data-deaths="44629" data-tested="null" data-cases-capita="21973" data-deaths-capita="349" data-cases-increase="0.41" style="transition-delay: 0.48s;"></path>
        <path id="VA" class="bigger" d="M890.46,274.06l-.11-2,6.86-2.68-.84,3.39-3.06,4-.42,4.88.53,3.6-1.9,5.3-2.32,2-1.58-4.88.42-5.73,1.69-4.45Zm3.59,30-61.44,13.32L793.13,323l-7.07-.42-2.74,2-7.71.21-8.87,1.06-11.51,1.7,11.08-5.94v-2.23l1.58-2.23L779.08,305l4.12,4.77,4,1.06,2.64-1.17,2.32-1.38,2.64,1.38,4.12-1.48,2-4.88,2.74.53,3.06-2.23,1.9.53,3-3.92.32-2.23-1.06-1.38,1.06-2,5.59-13,.63-6,1.27-.53,2.32,2.54,4.12-.32,2-8.06,3-.64,1.06-2.86,2.74-2.44,3-6,.11-5.41,10.34,4c.74.32.84-5.3.84-5.3l3.91,1.7.11,3.07,6.12,1.38,2.22,1.27,1.79,2.23-.74,3.82-2,2.76.11,2.23.63,2,5.28,1.38h4.75l3.17,1,2,.32.74,3.29,3.38.42,1,1.27-.42,5,1.48,1.17-.53,2,1.27.85-.21,1.48-2.85-.11.11,1.7,2.43,1.59.11,1.48,1.9,1.91.53,2.65-2.74,1.48,1.69,1.59,6.12-1.8Z" data-name="Virginia" data-pos="1697577" data-deaths="20202" data-tested="null" data-cases-capita="19888" data-deaths-capita="237" data-cases-increase="0.56" style="transition-delay: 0.455s;"></path>
        <path id="OH" class="smaller" d="M788.8,196.87l-6.44,4.35-4.12,2.44-3.59,3.92-4.22,4.14-3.38.85-3.06.53-5.81,2.76-2.22.21-3.59-3.29-5.49.64-2.74-1.59-2.52-1.45-5.17.74-10.77,1.7-11.82,2.33,1.37,15.48,1.9,14.53L719.87,270l.63,5.09,4.33-.11,2.53-.85,3.59,1.59,2.22,4.67h5.34l2,2.23,1.9-.11,2.64-1.38,2.64.42,5.7.53,1.79-2.23,2.43-1.38,2.22-.74.63,2.86,1.9,1.06,3.69,2.44,2.32-.11,1.37-.53.21-3,1.69-1.59.11-5.09,1.06-4.35,1.37-.64,1.37,1.17.53,1.8,1.79-1.06.42-1.59-1.16-2,.11-2.44.74-1.17,2.32-3.5,1.21-1.58,2.22.53,2.43-1.7,3.27-3.6,3-4.35.32-5.41.53-5.3-.21-5.62L792,229.86l.42-1.27,1.9-1.91-2.43-9.54Z" data-name="Ohio" data-pos="2688327" data-deaths="38360" data-tested="null" data-cases-capita="22999" data-deaths-capita="328" data-cases-increase="0.26" style="transition-delay: 0.43s;"></path>
        <path id="IN" class="smaller" d="M666.67,310l.11-3.07.53-4.77,2.43-3.07,1.9-4.14,2.74-4.45-.53-6.15L672,281.5l-.32-3.39.84-5.83-.53-7.42-1.37-17-1.37-16.33-1.06-12.41,3.27,1,1.58,1.06,1.16-.32,2.22-2,3-1.7,5.38-.21L708,214.51l5.91-.53,1.58,17L720,270l.63,6.15-.42,2.44,1.27,1.91.11,1.48-2.64,1.7-3.69,1.7-3.38.64-.63,5.2-4.86,3.5-3,4.24.32,2.54-.63,1.59h-3.47l-1.69-1.7-2.64,1.38-2.85,1.59.21,3.29-1.27.32-.53-1.06-2.33-1.65L685,306.62l-1.69,3.18-1.48-.85-1.58-1.7-4.75.53-5.91,1.06Z" data-name="Indiana" data-pos="1700774" data-deaths="23570" data-tested="null" data-cases-capita="25263" data-deaths-capita="350" data-cases-increase="0.3" style="transition-delay: 0.405s;"></path>
        <path id="CT" class="bigger" d="M935.32,181.61l-3.91-15.8-5,1-22.38,5,1.06,3.39,1.58,7.74.21,9.54-1.27,2.33,2,2,4.54-4.14,3.8-3.39,2-2.23.84.64,2.85-1.59,5.49-1.17Z" data-name="Connecticut" data-pos="755971" data-deaths="10838" data-tested="null" data-cases-capita="21204" data-deaths-capita="304" data-cases-increase="0.83" style="transition-delay: 0.545s;"></path>
        <path id="WI" class="bigger" d="M661.92,201.22l-.11-3.39-1.3-4.77-.63-6.47-1.16-2.54,1.06-3.29.84-3.07,1.58-2.76-.63-3.6-.63-3.82.53-1.91,2-2.54.21-2.86-.84-1.38.63-2.76-.53-4.45,2.85-6,3.06-7.21.21-2.44-.32-1.06-.84.53-4.39,6.63-2.85,4.24-2,1.91-.84,2.44-2.11.85-1.16,2-1.58-.32-.21-1.91,1.37-2.54,2.22-5,1.9-1.7,1.06-2.54-2.74-2-2.11-11-3.69-1.38-2-2.44L636,119.81l-3.06-1.06-8.7-2.37-8.34-1.27-4-5.41-.84.64-1.27-.21-.63-1.17-1.37.32-1.16.21-1.9,1.06-1.06-.64.63-2,2-3.29,1.16-1.17-2-1.59-2.22.85-3.06,2-7.81,3.39-3.06.64-3.06-.53-1.06-1-2.22,3-.21,2.86v9l-1.16,1.7L576,127.91l-2.43,6.26.53.21,2.64,2.23.74,3.39-1.9,3.39v4.14l.53,7,3.17,3.18h3.59l1.9,3.39,3.59.53,4.12,6L600,172l2.22,2.86,1,7.85.74,3.5,2.43,1.7.21,1.48-2.22,3.6.21,3.39,2.64,4.14,2.64,1.17,3.17.53,1.37,1.48Z" data-name="Wisconsin" data-pos="1607201" data-deaths="14411" data-tested="null" data-cases-capita="27604" data-deaths-capita="248" data-cases-increase="0.53" style="transition-delay: 0.345s;"></path>
        <path id="MO" class="smallest" d="M602.07,255l-2.64-3.29-1.16-2.44-68,2.54-2.43.11,1.37,2.65L529,257l2.64,4.14,3.27,4.35,3.3,2.9,2.32.21,1.58,1v3.18l-1.9,1.7-.53,2.44,2.22,3.6,2.64,3.18,2.64,1.91L548.66,298l.32,38.28.21,5,.53,5.73,23.64-1,24.49-.74,22-.85,12.35-.21,2.32,3.6-.74,3.5-3.27,2.48-.63,1.91,5.7.53,4.12-.74,1.79-5.83.74-6.26,2.22-2.76,2.74-1.59.11-3.29,1.06-2-1.85-2.66-1.37,1.06L643,329.84l-1.37-5.09.84-2.65-2-3.6-1.9-4.88-5.07-.85-7.39-5.94-1.79-4.35.84-3.39,2.22-6.47.53-3.07-2-1.06-7.28-.85-1.06-1.8-.09-4.46-5.81-3.6-7.39-8.27-2.43-7.74-.21-4.45Z" data-name="Missouri" data-pos="1420809" data-deaths="20212" data-tested="null" data-cases-capita="23150" data-deaths-capita="329" data-cases-increase="0.1" style="transition-delay: 0.32s;"></path>
        <path id="GA" class="smaller" d="M722.3,369v2.33l.21,2.23.63,3.6,3.59,8.38,2.53,10.5,1.58,6.47,1.69,5.09,1.58,7.42,2.22,6.68,2.74,3.6.53,3.6,2,.85.21,2.23-1.9,5.09-.53,3.39-.21,2,1.69,4.67.32,5.62-.84,2.54.63.85,1.58.85.21,3.39,2.32,3.5,2.43,2.33,8.34.21,11.51-.53,22.69-1.38,5.7-.74h4.86l.21,3.07,2.74.85.32-4.67-1.69-4.77,1.16-1.7,6.16.87,5.28.32L814,451l2.43-10.6L818,436l-.53-2.76,3.48-6.57-.53-1.48-2,.74-2.74-1.38-.74-2.12-1.39-3.82-2.43-2.2-2.74-.64-1.69-5.09L803.59,404l-4.43-2-2.22-2-1.43-2.81-2.22-2-2.43-1.38-2.35-3.09-3.27-2.44-4.73-1.87-.53-1.59-2.53-3.07-.53-1.59-3.59-5.3-3.69.11-4-2.54L764.16,371l-.32-1.91,1-2,2.32-1.17-.63-2.23Z" data-name="Georgia" data-pos="2515139" data-deaths="37806" data-tested="null" data-cases-capita="23689" data-deaths-capita="356" data-cases-increase="0.24" style="transition-delay: 0.435s;"></path>
        <path id="SC" class="smallest" d="M820.05,424.73l-1.9,1.06-2.75-1.41-.63-2.23-1.37-3.77L811,416.15l-2.74-.64-1.72-5.13L803.66,404l-4.43-2L797,400l-1.37-2.76-2.22-2L791,393.88l-2.43-3.07-3.24-2.43-4.75-1.91-.53-1.59-2.53-3.09L777,380.2l-3.59-5.51-3.59.21-4.22-2.52L764.21,371l-.32-1.91.84-2,2.43-1.06-.53-2.44,6.12-2.44,9.61-4.88,8.23-.85,17-.42,2.74,2,1.79,3.6,4.54-.64,13.3-1.59,3.06.85,13.3,8.06L857,375.87l-5.7,5.83-2.77,6.45-.53,6.68-1.69.85-1.16,2.86-2.53.64L840.38,403l-2.85,2.86-2.43,3.6-1.69.85-3.8,3.6-3.06.21,1.06,3.39-5.24,5.87Z" data-name="South Carolina" data-pos="1472093" data-deaths="17734" data-tested="null" data-cases-capita="28591" data-deaths-capita="344" data-cases-increase="0" style="transition-delay: 0.46s;"></path>
        <path id="LA" class="smallest" d="M654.43,478.8,651,475.38l1.06-5.83-.74-1-9.82,1.06-26.39.53-.74-2.54,1-9,3.48-6.26,5.28-9.22-.63-2.54,1.37-.74.53-2.12-2.43-2.23-.11-2-1.9-4.56-.11-6.68-58.58,1v10.13l.74,10,.74,4.14,2.64,4.35,1,5.3,4.54,5.83.21,3.39.74.74-.74,9-3.17,5.3,1.59,2.25-.74,2.65-.74,7.74-1.52,3.39.11,3.82,5-1.59,12.77.21,10.87,3.82,6.86,1.17L607,503.3l3.38,1.17,3.38,1.06.84-2.23-3.38-1.17-2.74.53-2.85-1.7s.21-1.38.84-1.59l3.27-1.06,1.9,1.59,1.9-1.06,3.38.64,1.58,2.54.32,2.44,4.75.32,1.9,1.91-.84,1.7-1.37.85,1.69,1.7,8.87,3.82,3.8-1.38,1.06-2.54,2.74-.64,1.9-1.59,1.37,1.06.84,3.07-2.43.85.63.64,3.59-1.38,2.43-3.6.84-.53-2.21-.34.84-1.7-.21-1.59,2.22-.53,1.16-1.38.63.85s-.21,3.29.63,3.29,4.43.64,4.43.64l4.22,2,1.06,1.59h3.12l1.16,1.06,2.43-3.29v-1.59h-1.37l-3.59-2.86L659,504l-3.38-2.44,1.16-2.86,2.43.32.21-.64-1.93-1v-.53h3.38l1.9-3.29-1.37-2-.32-2.86-1.58.21-2,2.23-.63,2.76-3.27-.64-1.11-1.94,1.9-2,2-3.6-1.16-2.54Z" data-name="Louisiana" data-pos="1172702" data-deaths="17240" data-tested="null" data-cases-capita="25226" data-deaths-capita="371" data-cases-increase="0.12" style="transition-delay: 0.34s;"></path>
        <path id="MN" class="bigger" d="M514.25,128.49l-.53-9-1.79-7.74L510,97.38,509.51,87l-1.9-3.6-1.69-5.3V67.2l.74-4.14-1.9-5.83h31.75l.32-8.69.63-.21,2.43.53,2,.85.84,5.83L544.31,62l1.69,1.7h5.07l.32,1.59,6.65.32v2.23h5.07l.32-1.38,1.16-1.17,2.43-.64,1.37,1.06h3.06l4.12,2.76L581.16,71l2.53.53.53-1.06L585.8,70l.53,3.07,2.76,1.35.53-.53,1.37.21v2.23l2.74,1.09H597l1.69-.85,3.38-3.39,2.74-.53.84,1.91.53,1.38h1.06l1.06-.85,9.39-.32,1.9,3.29h.63l.74-1.17,4.65-.47L625,78.82l-4.12,1.91-9.71,4.35-5.07,2.12L602.81,90l-2.53,3.82-2.43,4.14-1.9.85-4.75,5.3-1.37.21-4.54,3-2.64,3.39-.21,3.39.11,8.48-1.48,1.8-5.38,4-2.32,6.36,3.06,2.33.74,3.39-2,3.39.21,3.92.42,7.1L579,158h3.48l2,3.29,3.59.53,4.12,6,7.49,4.35,2.22,3.07.74,6.79-85.71,1.17-.32-37.85-.53-3.18-4.33-3.6-1.21-1.82v-1.7l2.22-1.7,1.48-1.48Z" data-name="Minnesota" data-pos="1448939" data-deaths="12769" data-tested="null" data-cases-capita="25692" data-deaths-capita="226" data-cases-increase="0.53" style="transition-delay: 0.305s;"></path>
        <path id="OK" class="smallest" d="M414.07,332.06l-17.63-1.38-.93,11.7,21.64,1.27L451,345,448.6,370.9l-.53,18.87.21,1.7,4.53,3.91,2.22,1.17.74-.21.74-2.23L458,396h2.22v-1.48l2.85,1.48-.53,4.14,4.33.21,2.64,1.17,4.33.74,2.64,1.91L478.9,402l3.59.74,2.64,3.6h1v2.44l2.43.74L491,407l1.9.74h2.64l1,2.65,6.65,2.23,1.48-.74,1.9-4.35h1.16l1.16,2.23,4.33.74,3.91,1.48,3.17,1,1.9-1,.74-2.65h4.54l2.22,1,2.85-2.23h1.16l.74,1.7h4.33l1.69-2.23,1.9.53,2.22,2.65L548,412.7l3.38,1,2,1.17-.42-39.44-1.48-11.66-.21-9.44-1.48-6.89-.84-7.63-.11-4-12.77.32-49-.53-47.5-2.23Z" data-name="Oklahoma" data-pos="1039952" data-deaths="15815" data-tested="null" data-cases-capita="26282" data-deaths-capita="400" data-cases-increase="0.16" style="transition-delay: 0.24s;"></path>
        <path id="SD" class="smallest" d="M515.51,208.22v-.64l-3.06-5.09,2-5,1.58-6.26L513,189l-.42-2.86.9-2.76h3.38l-.11-5.3-.32-32-.63-4-4.33-3.5-1.06-1.8-.11-1.7,2.11-1.59,1.58-1.8.21-2.86-61.54-1.7-57.85-3.6-5.59,67.54,15.41,1,21,1.27,18.68,1,25.17,1.26,12.67-.42,2.11,2.33,5.49,3.5.84.74,4.75-1.59,6.86-.64L504,200.9l4.43,1.7,3.06,1.7.42,1.59,1.06,2.33Z" data-name="South Dakota" data-pos="237812" data-deaths="2912" data-tested="null" data-cases-capita="26882" data-deaths-capita="329" data-cases-increase="0.12" style="transition-delay: 0.235s;"></path>
        <path id="ND" class="smallest" d="M514.35,128.59l-.63-8.91-1.79-7.21-2-13.78L509.4,87l-1.79-3.29-1.9-5.51v-11l.63-4-1.91-5.85-30.19-.64-19.63-.64-28-1.38-24.1-2.34-7.39,71.25,58,3.5Z" data-name="North Dakota" data-pos="240914" data-deaths="2263" data-tested="null" data-cases-capita="31613" data-deaths-capita="297" data-cases-increase="0.11" style="transition-delay: 0.24s;"></path>
        <path id="MT" class="smallest" d="M402.36,52.38l-32.41-3L339,45.56l-30.93-4.18L274,35.76l-19.42-3.6-34.52-7.32-4.74,22.54,3.59,8-1.48,4.88,1.9,4.88,3.38,1.48L227.51,78l2.89,3.36.53,1.17,3.58,1.19L235,86l-7.53,18.66v2.65l2.64,3.39h1l5.07-3.18.74-1.17,1.69.74-.21,5.62L241.29,126l3.17,2.65,1,.74,1.9,2.44-.53,3.6.74,3.6,1.16,1,2.43-2.44H254l3.38,1.7,2.64-1h4.33l3.91,1.7,2.85-.53.53-3.18,3.17-.74,1.48,1.48.53,3.39,1.48.85,2-11.66,112.63,14.21Z" data-name="Montana" data-pos="273788" data-deaths="3354" data-tested="null" data-cases-capita="25617" data-deaths-capita="314" data-cases-increase="0.15" style="transition-delay: 0.13s;"></path>
        <path id="ID" class="smallest" d="M169.39,179.06l9.29-37.32,1.48-4.45L182.8,131l-1.37-2.44-2.64.11-.84-1.06.53-1.17.32-3.29,4.71-5.8,1.9-.53,1.16-1.17.63-3.39,1-.74,4.12-6.15,4.12-4.56.21-4-3.59-2.76-1.61-4.7,14.36-67.13,14.25,2.65-4.65,22.69,3.8,8-1.69,5,2.12,4.79,3.27,1.38,4,10.18,3.69,4.67.53,1.17L234.61,84l.42,2.23-7.39,18.45-.21,2.76,2.74,3.5h1l5.17-3.18.74-1.17,1.69.74-.32,5.73,2.83,13.37,4.12,3.39,1.79,2.33-.74,4.35,1.16,3,1.16,1.17,2.64-2.54h3l3.06,1.38,3-.74,4-.21,4.22,1.7,2.85-.32.53-3.18,3.06-.85,1.37,1.59.42,3.07,1.48,1.27-8.87,56.83C269.56,198.38,176.78,180.65,169.39,179.06Z" data-name="Idaho" data-pos="445821" data-deaths="4923" data-tested="null" data-cases-capita="24947" data-deaths-capita="275" data-cases-increase="0.11" style="transition-delay: 0.105s;"></path>
        <path id="UT" class="smallest" d="M286.51,320.72l-88.3-12.62L220,188.82l49.4,9.22-1.58,11.24-2.43,14,8.23,1,17.31,1.91,8.66,1Z" data-name="Utah" data-pos="930558" data-deaths="4740" data-tested="null" data-cases-capita="29026" data-deaths-capita="148" data-cases-increase="0.13" style="transition-delay: 0.12s;"></path>
        <path id="OR" class="bigger" d="M169.6,178l9.29-36.9,1.16-4.45,2.53-5.94-.63-1.27h-2.64l-1.37-1.8.53-1.59.53-3.39,4.75-5.83,1.9-1.17,1.16-1.17,1.58-3.82,4.22-6,3.8-4.14.21-3.71-3.48-2.65-1.9-4.88-13.41-3.82-15.94-3.71L145.63,82l-.53-1.48-5.79,2.19-4.8-.63L132,80.38l-1.37.74-5-.21-1.75-1.53-5.59-2.23-.84.11-4.33-1.59-2,1.91-6.54-.32-6.23-4.35.74-.85.21-8.27-2.43-4.14L92.51,59l-.7-2.66-2.53-.53-6.13,2.23L80.72,65l-3.38,10.6L74,82.47,68.69,97.38l-6.86,14.31-8.55,13.36-2,3.07-.84,9.12.42,12.83Z" data-name="Oregon" data-pos="718630" data-deaths="7499" data-tested="null" data-cases-capita="17038" data-deaths-capita="178" data-cases-increase="0.83" style="transition-delay: 0.03s;"></path>
        <path id="AK" class="bigger" d="M172.6,459.38l24.11,84.56,1.9.52,3.19-.71,1.2-1.53,2.62-.76,1,2.81,9,4.68,1.25,2.43,2.89-2.87.55-.37-.58-3.15,1.06-2,1.05-.52,1.49-2,3.73,1.17,1.45,2.74,2.23.53,1.8,2,4.45.64,5.15,4.94,3.84,3.07,3.09,2,2.57,3.22,5.56.32,5.85.56,2.27,4.06,1.39,2.92v3.65l-1.16,2.8-1.84-.32-2.4-2.63-3.15-.7-2.13-.56-.58,1,2.29,2.23,1.26,3.6-1,.82-2.49-1.33-2.49-.67,1,1.44,1.83,1.4-.58,1a3.41,3.41,0,0,1-1.6-.61c-.68-.45-3.09-2.75-3.09-2.75l-1.67-2s.07,1.37-.72,1.28a3.89,3.89,0,0,1-1.74-1.1l1.27-2.4-1.94-1-1.43-5-.81.23.16,3.6-1,.82-2.07-3.37L239,564.69l-1-.26L239.9,570l.31,1.09-1.89-.85L233,565.34l-2.26.12L229.05,562l-2.44-2.4-1.93-.62-.66-2.28,1.75-1.9-.59-.15L222.73,556l-4.12-1.38-3.45-2.11-5.59-1.17-4.78-1.4.4-3.54-.46-1.58-1.36,2.11-2.61,1.93h-4l-6.44-.71-5.55,1.6-.46.67-7.68-2-2.21.32-4.38-5-3.53,1.33-3.2,2.53,1.79,4.31.28-3.19h1.13l-.26,4.79,2.46-3.6,1.06,1.41-2.68,5.49-1.4.08-1-1.73-1.54-.41-1,1.47-3.24-1-2.53,3-1.22,2.6-2.83,3.07-4.82,1.16-1.11-1.93,3.56-1.67-.37-1.29-2.49.08.32-2.67,1.21-4.53-.51-1.78v-.85l3.78-3.56,1.38,1,2.72-.79-2.06-2.19-3.82.78-4.27,4.13-1.45,4.06-1.07,3.1-.45,2.6-3.81,2.71-2.39,3.48.15,1.67,2.61.32,1.41,1.84-1.81,4-5.36,6L127,586.07l-1.8,1.7-5,2.63-4.69,3.82,2.19.76-1.2,1.87-.19,1.23-3-.2L110.15,599l-.15,2.51-1,.29-.38-2.46-3.26,2.34-2.64,1.84-3.8-.29L96.51,606l-3.23.93-1.77,1.9-1.39,1.26-2.21.32L85,610l-2.15,1.26-.72,1.28L80.17,612l-.54-1.88,2.76-2.19,6.53-1.24,4-2.87,1.59-2.69,2.76-1.44,1.54-1.27,2.78-.59,2,.82.92-.59,1.55-3.34,2.84-1.89,3.26-1.59,1.23-.68.75.32.81-.23.25-4,3.61-2.65.86-4.21,1-5.12,1.19-2-.44-2.66-1.24,1.75-3.26,1.59-1.29-2.2-1.4.08-.72,1.19.63,2.93-1.57.24-3.17-5.3-.94,1.67-1.25-.17-.85-1.79-4,1.36-1.8,1.7-2.71.46,1.08-1.92-.24-2.72-1.15-1.7,1.23-1.43,1.25-.58-1.12-1.61-1.26-4.35-1.3-.7L96,560.19,89.8,562l-1.89-.85-1.72-3.68-3.15-3-.29-1,1.89-1.4-.92-2.41.8-1.41-1-.26-1.17.87-1.88-2.35-.32-5.15,3.63-4.48L86,534.56l.86-4.21,2.35-2.07,2.94.33,1,2.29,2.34-1L98,526.59l1.79.13,1.18.3,1.61-.47,1.95-2-.45-4.59s-.53-3,0-3.65a4.93,4.93,0,0,0,.72-1.28l-1.65-1.56-2.4,1.55-3,1.72-2.06.06-4.16-.72-5.07,1.3-4.69-2.61-.61-4-.08-2.55-2.63-1.17-3-3.11.28-.94,6.72-2.48,2.12-.61,1.3.7.66-.23-.66-1.52,3.76-1.73,2.71-.46,1.83.65-.91,2.51-.08,1.63,3.18.8,5.56.32,1.53-1.51-3.62-3.69-1.92-2.87.78-1.08-4-.89-.82-.94v-1.73l-1.92-3.62-4.27-3.8L84,479l2.47-2.72,3.23-.93,2,.07L95.92,474l2.7-4.64.22-3.39,3-3.45,1.9.52,2.55-1.38,3.13-3.16,1.05-.52,1.24.5,4.48-1.51,1.84-3.85,1.11-.32,4.32,1.32,2.52,1.52-.19,1.23.92.91,1.16-2,4-.84,1.36,3.57,2.35.93,7.34-1.48,7.56,2.32,1.23-1.43,6,1,1.95-1.21,1.69-1.35,5.39.48ZM64.7,521.59l3.63,4.63.08,1-3,.55-3-3.43-2.25-1-2.42.7-1-2.51,1.13-2.9,1.8,2,1.94,1Zm7,33.9,4-.29,4-.09,1.09.76L80.23,560l-3.19.71-4.53-2.59Zm-24.92-7.91,1.85,2.25,1.57,1.26-.88,1.11-3-2.45-.54-1.88Zm7.07,76.3,2.77-3.27,3.15-2,2.71-.46,1,1.44,2.06-.06,1.37-2.43-.76-1.5,2.55-1.38L72.37,616l-.6,2.1-4.13,2.37-2.87.29h-4l-4,2.77-1.53.76Zm48.06-18.72,2.16,1.41,1.66-2.2-1.89-.85Zm3.78,2.12.45-2.6,2.21-.32-.26,2.11-2.39.8ZM129,598.52l2,1.34.69-1.38-1.35-1.65Zm5.31-14.93L137,589l3.16,0,4.22-4.33,3.7-3.86-2.3-1.91-.18-2.52-1.75,1.9-3.16,0,1.3-1.55,2.15.24,3.42-2.92.08-1.63-2.65-.09.26-2.11-2.18,2.67-3.71,4.93-4,4.27Zm37-31.93,2-2.18L171.75,548l-1.53,1.51Z" data-name="Alaska" data-pos="253002" data-deaths="1252" data-tested="null" data-cases-capita="34585" data-deaths-capita="171" data-cases-increase="0.59" style="transition-delay: 0.03s;"></path>
      </g>
      <g id="Layer_4" data-name="Layer 4">
        <path id="FL" class="bigger" d="M814.67,457.49l2.43,7.74L821,475.51l5.59,10,3.91,6.68,5.07,5.83,4.22,3.92,1.69,3.07-1.17,1.37-.84,1.38,3.06,7.85,3.06,3.07,2.74,5.62,3.8,6.15,4.75,8.69,1.37,8.06.53,12.72.63,1.91-.32,3.6-2.53,1.38.32,2-.63,2,.32,2.54.53,2-2.85,3.39L851,580.38l-4.12.21-1.58,1.7-2.54,1.09-1.37-.53-1.16-1.06-.32-3.07-.84-3.6-3.59-5.51-3.8-2.44-4.12-.32-.84,1.38-3.27-4.67-.63-3.82-2.74-4.24-1.9-1.17-1.69,2.23-1.9-.32-2.22-5.3-3.06-4.14-3.06-5.62-2.72-3.32-3.8-3.92,2.22-2.54,3.38-5.83-.21-1.7-4.75-1.06-1.69.64.32.64,2.74,1.06-1.58,4.77-.84.53-1.9-4.24L796,521.12l-.32-2.86,1.58-5V503.19L794,499.27,792.65,496l-5.49-1.38-2-.64-1.69-2.76-3.59-1.7-1.16-3.6-2.85-1.06-2.53-3.92-4.49-1.54-3.06-1.59h-2.64l-4.22.85-.21,2,.84,1.06-.53,1.17-3.27-.21-3.91,3.82-3.8,2h-4.12l-3.38,1.38-.32-2.86-1.69-2-3-1.21-1.69-1.59-8.55-4.14-8-1.91-4.64.64-6.33.53L700,479.55l-3.69.64-.21-8.48-2.74-2-1.9-1.91.32-3.29,10.77-1.38,26.92-3.07,7.07-.68,5.7.32,2.74,4.14,1.58,1.59,8.55.53,11.43-.58L789.2,464l5.7-.74,5.38.21.42,3.07,2.32.85.21-4.88-1.58-4.45,1.37-1.48,5.91.53ZM828,597.87l2.53-.64,1.37-.21,1.58-2.44,2.43-1.7,1.37.53,1.79.32.42,1.17-3.69,1.27-4.43,1.59L828.91,599Zm14.25-5.3,1.27,1.17,2.85-2.23,5.59-4.45,3.91-4.14,2.64-7,1.06-1.8.21-3.6-.74.53-1.06,3-1.58,4.88L853,584.55,848.35,589l-3.59,2Z" data-name="Florida" data-pos="5942723" data-deaths="73897" data-tested="null" data-cases-capita="27669" data-deaths-capita="344" data-cases-increase="0.62" style="transition-delay: 0.42s;"></path>
        <path id="RI" class="bigger" d="M935.32,181.61l-3.91-15.9,6.65-1.91,2.32,2,3.48,4.56,2.85,4.67-3.17,1.7-1.37-.21L941,178.38l-2.53,2Z" data-name="Rhode Island" data-pos="370262" data-deaths="3538" data-tested="null" data-cases-capita="34951" data-deaths-capita="334" data-cases-increase="0.78" style="transition-delay: 0.565s;"></path>
        <path id="NJ" class="bigger" d="M888.45,191.79,886,194.65v3.29l-2,3.29-.21,1.7,1.37,1.38-.21,2.54L882.51,208l.84,2.86.21,1.17,2.85.32,1.06,2.76,3.8,2.54,2.53,1.7v.85l-3.17,2.86-1.69,2.44-1.55,2.87L885,229.76l-.42,1.8-.21,1.27-.63,2.76,1.16,2.33,3.38,3.07,5.07,2.39,4.22.64.21,1.59-.84,1.06.32,2.86h.84l2.22-2.54.84-5.09,2.85-4.24,3.27-6.89,1.16-5.83-.63-1.17-.21-10-1.69-3.6-1.16.85-2.85.32-.53-.53,1.16-1.06,2.22-2,.11-1.17-.42-3.6.63-2.86-.11-2.12-3-1.91-5.38-1.27-4.29-1.44Z" data-name="New Jersey" data-pos="2252044" data-deaths="33416" data-tested="null" data-cases-capita="25355" data-deaths-capita="376" data-cases-increase="0.76" style="transition-delay: 0.535s;"></path>
        <path id="DE" class="smaller" d="M884.12,234l.42-2.23L885,230l-1.69.42-1.69.53-2.32,1.91,1.79,5.3,2.43,6,2.22,10.28,1.69,6.68,5.28-.21,6.44-1.27-2.43-7.85-1.06.53-3.8-2.54-1.9-5-2-3.82-3.27-3.07-1-2.23Z" data-name="Delaware" data-pos="261958" data-deaths="2906" data-tested="null" data-cases-capita="26902" data-deaths-capita="298" data-cases-increase="0.47" style="transition-delay: 0.53s;"></path>
        <path id="NC" class="smaller" d="M894,304l2.22,5.2,3.8,6.89,2.53,2.54.63,2.44-2.53.21.84.64-.32,4.45-2.7,1.38-.63,2.23L896.51,333l-3.91,1.7-2.53-.32-1.58-.21-1.69-1.38.32,1.38v1.06h2l.84,1.38-2,6.68h4.43L893,345l2.43-2.44,1.37-.53-2,3.82-3.31,5.08h-1.37L889,350.4l-2.85.64-5.49,2.54-6.86,5.62-3.59,5-2,6.89-.53,2.54-5,.53-5.81,1.38-10.45-8.69-13.3-8.06-3.06-.85-13.3,1.59-4.54.85-1.69-3.4-3.17-2.23-17.42.53-7.71.85-9.61,4.77-6.44,2.76-22.32,2.72.53-4.35,1.9-1.59,2.85-.64.63-3.92,4.43-2.86,4.12-1.59,4.43-3.82,4.64-2.23.63-3.29,4.12-4.14.63-.21s0,1.17.84,1.17a6.6,6.6,0,0,1,2,.32l2.43-3.82,2.22-.64,2.43.32,1.69-3.82,3.06-2.76.53-2.23.21-3.82h4.54l7.6-1L817,319l15.94-2.23,22.8-5,21.12-4.41,11.82-2.54Zm4.54,35.2,2.74-2.65,3.38-2.76,1.58-.64.21-2.12-.63-6.47-1.58-2.44-.63-2,.74-.21,2.85,5.83.42,4.67-.21,3.6-3.59,1.59-3,2.54-1.12,1.28Z" data-name="North Carolina" data-pos="2659255" data-deaths="23405" data-tested="null" data-cases-capita="25355" data-deaths-capita="223" data-cases-increase="0.44" style="transition-delay: 0.45s;"></path>
        <path id="MA" class="biggest" d="M962.23,175.67l2.32-.74.53-1.8,1.06.11,1.06,2.44-1.37.53-4.12.11Zm-9.92.85,2.43-2.76h1.69l1.9,1.59-2.53,1-2.29,1.09Zm-36.63-23.33,18.58-4.88,2.43-.64,2-3,3.91-1.8,3.06,4.67-2.53,5.51-.32,1.59,2,2.76,1.16-.85h1.9l2.44,2.83,4.12,6.36,3.8.53,2.43-1.06,1.9-1.91-.85-2.92-2.22-1.7-1.58.85-1.06-1.38.53-.53,2.22-.21,1.9.85,2,2.54,1.06,3.07.32,2.54L960.45,168l-4.12,2-4.12,4.77-2,1.59v-1l2.53-1.59.53-1.91-.84-3.29-3.06,1.59-.84,1.59.53,2.44-2.22,1.06L944,170.5l-3.59-4.67-2.22-1.91-6.86,2-5.38,1.17L904.09,172l-.74-5.09.63-11.24,4.54-1Z" data-name="Massachusetts" data-pos="1749776" data-deaths="20247" data-tested="null" data-cases-capita="25387" data-deaths-capita="294" data-cases-increase="0.96" style="transition-delay: 0.545s;"></path>
        <path id="AR" class="smallest" d="M639.44,355.7l-4.22.74-5.38-.64.42-1.7,3.17-2.76,1-3.92-1.9-3.18-82.76,2.65,1.69,7.32v8.69l1.48,11.66.21,40.08,2.43,2,3.17-1.48,2.76,1.22.74,7,58.69-1.17L622.1,420l-.32-3.71-1.9-3.18,1.69-1.59-1.69-2.65.74-2.65,1.48-5.94,2.64-2.23-.74-2.44,3.91-5.73,2.85-1.48-.11-1.59-.32-1.91,3.06-5.94,2.53-1.38.42-3.6,1.9-1.27-3.27-.53-1.37-4.24,3-2.54.63-2.12L638.6,359Z" data-name="Arkansas" data-pos="835408" data-deaths="11377" data-tested="null" data-cases-capita="27683" data-deaths-capita="377" data-cases-increase="0.1" style="transition-delay: 0.335s;"></path>
        <path id="TX" class="smaller" d="M394.23,342.45l24,1.17,32.83,1.17-2.43,24.92-.32,19.3.11,2.23,4.54,4,2.11,1.48,1.27-.64.42-1.91,1.16,1.91h2.22V394.6l1.79,1.06,1.16.42-.42,4.24,4.33.11,3.06,1.27,4.22.53,2.53,2.23,2.22-2.23,3.91.64,2.32,3.39,1.16.32-.21,2.12,2.32.85,2.43-2.23,2.22.64h2.32l1,2.54,6.65,2.23,1.69-.85,1.58-4.45h.32l1,.11,1.27,2.23,4.12.74,3.48,1.17L520.2,413l1.9-1.06.74-2.65h4.75l1.9,1,3-2.23h1.16l1,1.7H539l1.58-2.12,2,.42,2,2.54,3.69,2.12,3.06.85,1.58.85,2.53,2.12,3.17-1.38,2.85,1.17.63,6.47V433l.74,10.07.74,3.82,2.85,4.67,1,5.3,4.43,5.83L572,466l.74.85-.74,8.91-3.06,5.3,1.58,2.33-.63,2.44-.74,7.85-1.58,3.5.32,3.71-6,1.7-10.45,4.77-1.06,2-2.74,2L545.46,513l-1.37.85L538.6,520l-3.09,2.21-5.59,3.39-6,2.54-6.65,3.6-1.9,1.59-6.12,3.82-3.59.64-4.15,5.84-4.22.32-1.06,2,2.43,2-1.58,5.83-1.37,4.77-1.2,4.16-.84,4.77.84,2.54,1.9,7.42,1.1,6.48,1.9,2.86-1.1,1.64-3.27,2-6-4.14-5.81-1.17-1.37.53-3.38-.64-4.43-3.29-5.54-1.18-8-3.6-2.22-4.14-1.37-6.89-3.38-2-.63-2.44.63-.64.32-3.6-1.37-.64-.63-1.06,1.37-4.67-1.72-2.43L448.13,547l-3.59-4.67-3.8-7-4.43-2.76.21-2-5.59-13-.84-4.45-1.9-2-.21-1.59-6.33-5.62-2.74-3.29v-1.24l-2.74-2.23L409,496l-7.81-.64-3.27-2.44-4.75,1.91-3.8,1.59-2.43,3.39-1.06,3.92-4.64,6.47-2.53,2.54L376,511.66l-1.9-1.17-2-.64-4.12-2.44v-.64l-1.9-2-5.53-2.22-7.81-8.27-2.43-5v-8.59l-3.38-6.89-.53-2.86-1.69-1.06-1.16-2.23-5.28-2.23-1.37-1.7-7.44-8.34L328.05,452l-5-2.44-1.54-4.68-2.74-3.07-2-.53-.63-5,8.44.74,30.61,2.86,30.61,1.7,2.32-20.68,4.12-59,1.69-19.83h1.48M500,585.89l-.63-7.53-2.86-7.63-.63-7.42,1.58-8.69,3.48-7.32,3.69-5.73,3.38-3.82.63.21-5.07,7-4.64,6.89-2.11,7-.31,5.53,1,6.47,2.74,7.63.53,5.51.21,1.59Z" data-name="Texas" data-pos="6816971" data-deaths="88057" data-tested="null" data-cases-capita="23510" data-deaths-capita="304" data-cases-increase="0.27" style="transition-delay: 0.19s;"></path>
        <path id="KS" class="smaller" d="M548.77,335.88l-13.3.21-48.66-.53-47.09-2.18-26-1.38,4.12-68.49,23.33.74,42.54.85,46.8,1h5.38l2.32,2.33h2.11L542,269.5l-.11,3.18-1.9,1.8-.32,2.33,1.9,3.6,3.17,3.39,2.43,1.7,1.33,11.88Z" data-name="Kansas" data-pos="774750" data-deaths="8597" data-tested="null" data-cases-capita="26593" data-deaths-capita="295" data-cases-increase="0.27" style="transition-delay: 0.25s;"></path>
        <path id="WY" class="smallest" d="M393.07,143.86,280.44,129.55l-14.93,93.83,119.6,14.42Z" data-name="Wyoming" data-pos="156550" data-deaths="1812" data-tested="null" data-cases-capita="27049" data-deaths-capita="313" data-cases-increase="0.1" style="transition-delay: 0.16s;"></path>
        <path id="NV" class="smaller" d="M220,188.71,195,325.27l-1.9.32-1.69,2.54h-2.53l-1.58-2.86-2.74-.42-.84-1.17-1.06-.11-3,1.7-.32,7.21-.42,6.15-.32,9.12L177.16,350l-2.53-1.17-73-110.38,20.06-71.68Z" data-name="Nevada" data-pos="712287" data-deaths="10752" data-tested="null" data-cases-capita="23125" data-deaths-capita="349" data-cases-increase="0.27" style="transition-delay: 0.06s;"></path>
      </g>
      <g id="Layer_3-2" data-name="Layer 3-2">
        <path id="lines" class="biggest" d="M909.35,76.64l19.53,46.86ZM885.07,84.7l20,22.16ZM958.64,144,937,154Zm-19.13,31.7,23.43,5.41Zm-19.42,2.23,20,12.94Zm-20.9,44L911.75,223Zm8.32,27.56-14.73,1.92Zm-44.55,1,44,24.6Z" style="transition-delay: 0.52s;"></path>
      </g>
      <g id="text_layers" data-name="text layers">
        <g class="cls-5">
          <text class="cls-6" transform="translate(300.92 92.21)">M</text>
          <text class="cls-7" transform="translate(319.28 92.21)">on.</text>
        </g>
        <g class="cls-5">
          <text class="cls-8" transform="translate(125.31 57.39)">W</text>
          <text class="cls-7" transform="translate(144.24 57.39)">ash.</text>
        </g>
        <text class="cls-7" transform="translate(103.07 130.12)">Or <tspan class="cls-9" x="22.27" y="0">e</tspan>
          <tspan x="32.98" y="0">.</tspan>
        </text>
        <g class="cls-5">
          <text class="cls-7" transform="translate(137.89 245)">Ne</text>
          <text class="cls-10" transform="translate(164.05 245)">v</text>
          <text class="cls-7" transform="translate(175.76 245)">.</text>
        </g>
        <text class="cls-7" transform="translate(79.59 306.68)">Cali.</text>
        <text class="cls-7" transform="translate(213.53 380.48)">Ariz.</text>
        <text class="cls-7" transform="translate(116.71 507.35)">Alas.</text>
        <text class="cls-7" transform="translate(335.1 594.64)">HI</text>
        <text class="cls-7" transform="translate(317.01 386.29)">NM</text>
        <g class="cls-5">
          <text class="cls-7" transform="translate(329.67 286.07)">Col</text>
          <text class="cls-11" transform="translate(359.28 286.07)">o</text>
          <text class="cls-7" transform="translate(371.77 286.07)">.</text>
        </g>
        <text class="cls-7" transform="translate(229.7 273.77)">Utah</text>
        <g class="cls-5">
          <text class="cls-6" transform="translate(200.76 154.06)">I</text>
          <text class="cls-7" transform="translate(206.84 154.06)">da.</text>
        </g>
        <g class="cls-5">
          <text class="cls-12" transform="translate(309.97 188.42)">W</text>
          <text class="cls-13" transform="translate(329.54 188.42)">y <tspan class="cls-14" x="10.12" y="0">o</tspan>
          </text>
          <text class="cls-7" transform="translate(354.33 188.42)">.</text>
        </g>
        <text class="cls-7" transform="translate(440.47 169.38)">SD</text>
        <g class="cls-5">
          <text class="cls-7" transform="translate(434.37 238.87)">Neb</text>
          <text class="cls-15" transform="translate(474.77 238.87)">r</text>
          <text class="cls-7" transform="translate(482.97 238.87)">.</text>
        </g>
        <text class="cls-7" transform="translate(459.72 304.82)">
          <tspan class="cls-16">K</tspan>
          <tspan x="12.77" y="0">an.</tspan>
        </text>
        <text class="cls-7" transform="translate(478.65 379.42)">Okla.</text>
        <g class="cls-5">
          <text class="cls-12" transform="translate(445.63 465.35)">T</text>
          <text class="cls-17" transform="translate(459.31 465.35)">e</text>
          <text class="cls-7" transform="translate(470.65 465.35)">x.</text>
        </g>
        <text class="cls-7" transform="translate(569.79 389.93)">Ark.</text>
        <g class="cls-5">
          <text class="cls-18" transform="translate(577.69 459.58)">L</text>
          <text class="cls-7" transform="translate(590.99 459.58)">a.</text>
        </g>
        <text class="cls-7" transform="translate(754.97 427.46)">Ga.</text>
        <text class="cls-7" transform="translate(805.46 521.97)">Fla.</text>
        <text class="cls-7" transform="translate(806.97 396.13)">SC</text>
        <text class="cls-7" transform="translate(839.78 346.25)">NC</text>
        <g class="cls-5">
          <text class="cls-19" transform="translate(835.13 299.04)">V</text>
          <text class="cls-7" transform="translate(848.89 299.04)">a.</text>
        </g>
        <g class="cls-5">
          <text class="cls-11" transform="translate(820.42 225.03)">P</text>
          <text class="cls-7" transform="translate(833.97 225.03)">a.</text>
        </g>
        <g class="cls-5">
          <text class="cls-6" transform="translate(902.22 287.12)">M</text>
          <text class="cls-7" transform="translate(922.58 287.12)">d.</text>
        </g>
        <text class="cls-7" transform="translate(905.45 255.2)">Del.</text>
        <g class="cls-5">
          <text class="cls-11" transform="translate(912.57 229.47)">N</text>
          <text class="cls-7" transform="translate(927.86 229.47)">J</text>
        </g>
        <text class="cls-7" transform="translate(920.99 206.01)">Conn.</text>
        <text class="cls-7" transform="translate(959.82 188.15)">RI</text>
        <text class="cls-7" transform="translate(956.07 149.37)">Mass.</text>
        <text class="cls-7" transform="translate(884.96 68.55)">NH</text>
        <text class="cls-7" transform="translate(854.84 84.05)">
          <tspan class="cls-20">V</tspan>
          <tspan x="13.53" y="0">T</tspan>
        </text>
        <text class="cls-7" transform="translate(937.46 87.95)">Mai.</text>
        <text class="cls-7" transform="translate(860.2 164.36)">NY</text>
        <text class="cls-7" transform="translate(685.32 180.57)">Mich.</text>
        <text class="cls-7" transform="translate(727.96 255.42)">Ohio</text>
        <text class="cls-7" transform="translate(675.68 274.5)">Ind.</text>
        <g class="cls-5">
          <text class="cls-6" transform="translate(569.41 315.13)">M</text>
          <text class="cls-11" transform="translate(589.77 315.13)">o</text>
          <text class="cls-7" transform="translate(602.26 315.13)">.</text>
        </g>
        <text class="cls-7" transform="translate(627.07 265.13)">IL</text>
        <g class="cls-5">
          <text class="cls-6" transform="translate(536.54 224.3)">I</text>
          <text class="cls-17" transform="translate(544.62 224.3)">o <tspan class="cls-16" x="11.16" y="0">w</tspan>
          </text>
          <text class="cls-7" transform="translate(572.15 224.3)">a</text>
        </g>
        <text class="cls-7" transform="translate(518.58 122.15)">Minn.</text>
        <text class="cls-7" transform="translate(626.05 423.59)">Miss.</text>
        <text class="cls-7" transform="translate(681.57 422.65)">Ala.</text>
        <g class="cls-5">
          <text class="cls-12" transform="translate(665.52 360.95)">T</text>
          <text class="cls-7" transform="translate(679.2 360.95)">enn.</text>
        </g>
        <g class="cls-5">
          <text class="cls-6" transform="translate(706.28 317.47)">K</text>
          <text class="cls-7" transform="translate(721.95 317.47)">Y</text>
        </g>
        <text class="cls-7" transform="translate(774.49 290.02)">
          <tspan class="cls-20">W</tspan>
          <tspan x="19.15" y="0">V</tspan>
        </text>
        <g class="cls-5">
          <text class="cls-6" transform="translate(611.11 174)">W</text>
          <text class="cls-7" transform="translate(630.99 174)">is.</text>
        </g>
        <text class="cls-7" transform="translate(438.33 99.19)">ND</text>
      </g>
      <path id="HI" class="biggest" d="M396.6,590.87l-3.38-2.29-2.82.89.9,5.91-3.79,5.11,3.71,7.67,1.31,8,4,2.37,2.25-4.06L403,611.1l5.31-1.65,5.6-5.29-5.89-4.72-.23-3-11.3-5.6ZM377,583.08l-1.7-1.36-1.45,2L377,583Zm-8.18-4.29.28-4-2-.25,1.71,4.23Zm6.42-6.76-1.83,1,1.48,4,2.75.11,1,3.48,3,1.2,6.44-3.35-6.34-4.92-6.53-1.5Zm-13.71-3.85-.87,2.9,4.59-.3,4.31.93-2.33-3.43-5.71-.1Zm-13.81-7.92-2.5-2.21-4.56,3.82,3.18,5.38,2-2.28L351.9,566l-.65-2.51-3.53-3.27ZM300,557.46l.59-1.57,1.82-1.07L300,557.45Zm16.47-10.36-7.33,3-.69,2,3,2,4.21.93,2.72-6-2-2Z" data-name="Hawaii" data-pos="248405" data-deaths="1418" data-tested="null" data-cases-capita="17544" data-deaths-capita="100" data-cases-increase="1.38" style="transition-delay: 0.18s;"></path>
    </g>
  </g>
</svg>